# xmcd
#
# Track frame offsets:
#	150
#	21055
#	35440
#	54592
#	68530
#	82352
#	94272
#	108445
#	131820
#	141285
#	164735
#	180287
#	193367
#	212370
#	232940
#	249340
#	270865
#	284442
#	297607
#	314212
#
# Disc length: 4384 seconds
#
# Revision: 1
# Processed by: cddbd v1.4PL0 Copyright (c) Steve Scherf et al.
# Submitted via: audiograbber 1.82.02
#
DISCID=31111e14
DTITLE=Various Artist - Deep South, S.A. Rhythm And Blues
DYEAR=1994
DGENRE=Blues
TTITLE0=The Streamliners - Hummingbird
TTITLE1=The Streamliners - Fryin' On Your Stove
TTITLE2=The Streamliners - Catch Me By The Tail
TTITLE3=The Streamliners - I Walk Alone
TTITLE4=Chris Finnen Blues Band - Horn Rimmed Hoodoo
TTITLE5=Chris Finnen Blues Band - Talk Is Cheap
TTITLE6=Chris Finnen Blues Band - THC
TTITLE7=Chris Finnen Blues Band - Old Dog New Tricks
TTITLE8=Greg Baker's Blues Party - Hot To Trot
TTITLE9=Greg Baker's Blues Party - What A Bargain
TTITLE10=Greg Baker's Blues Party - Lizard Crawl
TTITLE11=Greg Baker's Blues Party - Girl Just Wants to Dance
TTITLE12=Double Wammy - Monster Stomp
TTITLE13=Double Wammy - Make Love To Me
TTITLE14=Double Wammy - Time For A Change
TTITLE15=Double Wammy - Leslie Goes Crazy
TTITLE16=Hoy-Hoy! - Love Takes Time
TTITLE17=Hoy-Hoy! - Sick And Tired
TTITLE18=Hoy-Hoy! - Going Fast Feeling Slow
TTITLE19=Hoy-Hoy! - No Pain No Gain
EXTD=
EXTT0=
EXTT1=
EXTT2=
EXTT3=
EXTT4=
EXTT5=
EXTT6=
EXTT7=
EXTT8=
EXTT9=
EXTT10=
EXTT11=
EXTT12=
EXTT13=
EXTT14=
EXTT15=
EXTT16=
EXTT17=
EXTT18=
EXTT19=
PLAYORDER=
